<?xml version="1.0" encoding="UTF-8"?>
<svg xmlns="http://www.w3.org/2000/svg" xmlns:xlink="http://www.w3.org/1999/xlink" version="1.1" id="Capa_1" x="0px" y="0px" viewBox="0 0 512 512" style="enable-background:new 0 0 512 512;" xml:space="preserve" width="512" height="512">
<g id="Quote_request">
	<path style="fill:none;stroke:#000000;stroke-width:40;stroke-linecap:round;stroke-linejoin:round;stroke-miterlimit:10;" d="&#10;&#9;&#9;M141.774,492H60c-22.091,0-40-17.909-40-40V60c0-22.091,17.909-40,40-40h192c11.045,0,21.045,4.477,28.284,11.716l40,40&#10;&#9;&#9;C327.522,78.954,332,88.954,332,100v110.179"/>
	<path style="fill:none;stroke:#000000;stroke-width:40;stroke-linecap:round;stroke-linejoin:round;stroke-miterlimit:10;" d="&#10;&#9;&#9;M423.716,231.583c15.621-15.621,40.948-15.621,56.568,0c15.621,15.621,15.621,40.948,0,56.569L314.953,453.483&#10;&#9;&#9;c-2.899,2.899-6.226,5.335-9.866,7.223l-56.012,29.055c-7.532,3.907-17.029,2.701-23.35-3.619c-6.32-6.32-7.526-15.817-3.619-23.35&#10;&#9;&#9;l29.055-56.012c1.888-3.639,4.324-6.967,7.223-9.866L423.716,231.583z"/>
	
		<line style="fill:none;stroke:#000000;stroke-width:40;stroke-linecap:round;stroke-linejoin:round;stroke-miterlimit:10;" x1="100" y1="172" x2="252" y2="172"/>
	
		<line style="fill:none;stroke:#000000;stroke-width:40;stroke-linecap:round;stroke-linejoin:round;stroke-miterlimit:10;" x1="100" y1="252" x2="252" y2="252"/>
	
		<line style="fill:none;stroke:#000000;stroke-width:40;stroke-linecap:round;stroke-linejoin:round;stroke-miterlimit:10;" x1="100" y1="332" x2="172" y2="332"/>
</g>















</svg>
