<svg height="512" viewBox="0 0 24 24" width="512" xmlns="http://www.w3.org/2000/svg"><g id="Line"><path d="m12 23a2.8 2.8 0 0 1 -1.07-.21 14.07 14.07 0 0 1 -8.93-13.16v-4.07a3 3 0 0 1 2.35-2.93l7-1.56a3.16 3.16 0 0 1 1.3 0l7 1.56a3 3 0 0 1 2.35 2.93v4.07a14.1 14.1 0 0 1 -8.93 13.17 3 3 0 0 1 -1.07.2zm0-20h-.22l-7 1.56a1 1 0 0 0 -.78 1v4.07a12.1 12.1 0 0 0 7.67 11.31.94.94 0 0 0 .66 0 12.1 12.1 0 0 0 7.67-11.31v-4.07a1 1 0 0 0 -.78-1l-7-1.56zm-.77 11.77a1 1 0 0 1 -.7-.28l-2.28-2.24a1 1 0 0 1 0-1.42 1 1 0 0 1 1.41 0l1.58 1.55 4.11-4a1 1 0 1 1 1.41 1.43l-4.81 4.73a1 1 0 0 1 -.72.23z"/></g></svg>