<svg width="24" height="25" viewBox="0 0 24 25" fill="none" xmlns="http://www.w3.org/2000/svg">
<path d="M23.4731 3.94091L23.3484 3.81882C23.0098 3.48717 22.5565 3.30447 22.0721 3.30447C21.5843 3.30447 21.1263 3.48798 20.7809 3.82156L6.82763 16.4381C6.82132 16.4438 6.81527 16.4496 6.80916 16.4555C6.52041 16.7384 6.36562 17.0967 6.35989 17.4928C6.1895 17.4581 6.01159 17.4376 5.82718 17.4376C5.09795 17.4376 4.44058 17.7442 3.87341 18.3488C3.15483 19.1148 2.85818 19.9605 2.59657 20.7065C2.20826 21.8139 1.90149 22.6886 0.386989 23.3221C0.192389 23.4035 0.051806 23.5741 0.0116121 23.7777C-0.0285818 23.9812 0.0369643 24.191 0.186593 24.3375C0.685481 24.8265 2.01825 25 3.00787 25C4.30261 25 6.75368 24.7265 8.62202 22.8955C9.15499 22.3733 9.4245 21.7631 9.42297 21.0819C9.42252 20.9098 9.40361 20.7417 9.37144 20.5789C9.41392 20.5821 9.45654 20.5843 9.49941 20.5843C9.91434 20.5843 10.2895 20.4316 10.5843 20.1428C10.5903 20.1368 10.5963 20.1308 10.602 20.1247L23.4706 6.45717C24.1749 5.75681 24.1772 4.63104 23.4731 3.94091ZM7.7212 22.0128C6.17739 23.5257 4.10553 23.7516 3.00794 23.7516C2.70416 23.7516 2.43293 23.7352 2.19622 23.7096C3.16438 22.9286 3.49784 21.9779 3.80137 21.1123C4.04393 20.4208 4.27299 19.7675 4.81131 19.1937C5.13171 18.8521 5.46397 18.6861 5.82711 18.6861C6.42875 18.6861 7.03389 19.1476 7.27155 19.3755C7.29569 19.4006 7.31397 19.4187 7.32391 19.4284L7.34365 19.4478C7.4099 19.5151 8.14721 20.2847 8.14906 21.0848C8.14982 21.4264 8.00981 21.7301 7.7212 22.0128ZM22.5599 5.58434C22.5539 5.59027 22.548 5.59626 22.5422 5.60244L9.67636 19.267C9.62273 19.3172 9.57381 19.336 9.49947 19.336C9.18314 19.336 8.69126 18.9989 8.44526 18.7616L8.2497 18.57L8.24671 18.567C8.23238 18.5521 8.20996 18.5292 8.18027 18.5002C7.98236 18.2915 7.63374 17.8308 7.63329 17.516C7.63323 17.4445 7.65227 17.3974 7.70291 17.3454L21.6533 4.73154C21.6596 4.7258 21.6658 4.71993 21.6719 4.71406C21.7778 4.61013 21.92 4.55295 22.0721 4.55295C22.2163 4.55295 22.3497 4.60582 22.4479 4.70195L22.5724 4.82392C22.7794 5.02667 22.7736 5.37498 22.5599 5.58434Z" fill="#033162"/>
<path d="M16.5756 2.34518L17.0996 0.607087C17.1507 0.444532 17.0996 0.269473 16.9846 0.14443C16.8695 0.0193881 16.6651 -0.0306289 16.499 0.019388L14.7227 0.532062L12.9464 0.019388C12.7803 -0.0306289 12.6014 0.0193881 12.4736 0.131926C12.3458 0.256969 12.3074 0.432028 12.3586 0.594583L12.8697 2.34518L12.3458 4.08327C12.2947 4.24581 12.3458 4.42088 12.4608 4.54592C12.5886 4.67096 12.7675 4.70848 12.9336 4.65846L14.7227 4.15829L16.499 4.67096C16.5501 4.68347 16.5884 4.69597 16.6395 4.69597C16.7673 4.69597 16.8823 4.64596 16.9846 4.55843C17.1124 4.43338 17.1507 4.25832 17.0996 4.09577L16.5756 2.34518Z" fill="#0A7DFA"/>
</svg>
