<svg width="26" height="26" viewBox="0 0 26 26" fill="none" xmlns="http://www.w3.org/2000/svg">
<path d="M24.2125 9.33333C23.9813 9.33636 23.7605 9.42951 23.5971 9.59296C23.4336 9.7564 23.3405 9.97721 23.3375 10.2083V17.2083L18.4608 11.6317C18.151 11.3018 17.7768 11.0389 17.3615 10.8592C16.9461 10.6795 16.4984 10.5868 16.0458 10.5868C15.5932 10.5868 15.1455 10.6795 14.7301 10.8592C14.3148 11.0389 13.9406 11.3018 13.6308 11.6317L10.2825 15.4583L9.1858 14.1283C8.88361 13.7658 8.50542 13.4742 8.07801 13.274C7.6506 13.0739 7.18442 12.9701 6.71247 12.9701C6.24052 12.9701 5.77434 13.0739 5.34693 13.274C4.91952 13.4742 4.54133 13.7658 4.23913 14.1283L1.75413 17.1267V5.54167C1.75721 4.537 2.15768 3.57436 2.86809 2.86395C3.57849 2.15354 4.54113 1.75308 5.5458 1.75H14.8791C15.1112 1.75 15.3338 1.65781 15.4979 1.49372C15.6619 1.32962 15.7541 1.10706 15.7541 0.875C15.7541 0.642936 15.6619 0.420376 15.4979 0.256282C15.3338 0.0921873 15.1112 2.98023e-08 14.8791 2.98023e-08H5.5458C4.07606 2.98023e-08 2.66651 0.583853 1.62725 1.62312C0.587985 2.66238 0.00413224 4.07193 0.00413224 5.54167V19.5417C-0.00137741 19.5607 -0.00137741 19.5809 0.00413224 19.6C0.0194974 21.0596 0.610126 22.4542 1.64773 23.4809C2.68533 24.5076 4.08611 25.0834 5.5458 25.0833H19.5458C20.9995 25.0804 22.3938 24.5064 23.4282 23.4851C24.4627 22.4638 25.0544 21.0769 25.0758 19.6233V10.2083C25.0729 9.97919 24.9813 9.76008 24.8204 9.59695C24.6594 9.43382 24.4416 9.33935 24.2125 9.33333ZM19.5458 23.3333H5.5458C4.59277 23.3303 3.67583 22.9685 2.97753 22.3199C2.27922 21.6713 1.85077 20.7835 1.77747 19.8333L5.5458 15.2483C5.68694 15.0911 5.85962 14.9653 6.05259 14.8792C6.24556 14.7931 6.4545 14.7486 6.6658 14.7486C6.8771 14.7486 7.08604 14.7931 7.27901 14.8792C7.47198 14.9653 7.64465 15.0911 7.7858 15.2483L9.54747 17.3717C9.62826 17.4699 9.72977 17.5491 9.84473 17.6036C9.95969 17.658 10.0853 17.6864 10.2125 17.6867C10.4644 17.6728 10.7018 17.5645 10.8775 17.3833L14.8908 12.7867C15.0336 12.6363 15.2055 12.5165 15.396 12.4347C15.5866 12.3529 15.7918 12.3107 15.9991 12.3107C16.2065 12.3107 16.4117 12.3529 16.6022 12.4347C16.7928 12.5165 16.9647 12.6363 17.1075 12.7867L23.2558 19.7867C23.1972 20.7362 22.7827 21.6288 22.095 22.2862C21.4073 22.9436 20.497 23.3175 19.5458 23.3333Z" fill="#033162"/>
<path d="M3.50413 6.70833C3.50413 7.34288 3.6923 7.96318 4.04483 8.49079C4.39737 9.0184 4.89844 9.42962 5.48469 9.67245C6.07094 9.91528 6.71602 9.97881 7.33838 9.85502C7.96074 9.73123 8.53241 9.42566 8.9811 8.97697C9.42979 8.52827 9.73536 7.9566 9.85915 7.33425C9.98295 6.71189 9.91941 6.0668 9.67658 5.48056C9.43375 4.89431 9.02253 4.39324 8.49492 4.0407C7.96731 3.68817 7.34701 3.5 6.71247 3.5C5.86156 3.5 5.04551 3.83802 4.44383 4.4397C3.84215 5.04138 3.50413 5.85743 3.50413 6.70833ZM8.1708 6.70833C8.1708 6.99676 8.08527 7.27872 7.92503 7.51854C7.76478 7.75836 7.53702 7.94528 7.27055 8.05566C7.00407 8.16604 6.71085 8.19491 6.42796 8.13865C6.14507 8.08238 5.88522 7.94348 5.68127 7.73953C5.47732 7.53558 5.33842 7.27573 5.28215 6.99284C5.22588 6.70995 5.25476 6.41673 5.36514 6.15025C5.47552 5.88378 5.66244 5.65602 5.90226 5.49577C6.14208 5.33553 6.42403 5.25 6.71247 5.25C7.09924 5.25 7.47017 5.40365 7.74366 5.67714C8.01715 5.95063 8.1708 6.32156 8.1708 6.70833Z" fill="#033162"/>
<path d="M17.2125 5.25H19.8375V7.875C19.8375 8.10706 19.9297 8.32962 20.0937 8.49372C20.2578 8.65781 20.4804 8.75 20.7125 8.75C20.9445 8.75 21.1671 8.65781 21.3312 8.49372C21.4953 8.32962 21.5875 8.10706 21.5875 7.875V5.25H24.2125C24.4445 5.25 24.6671 5.15781 24.8312 4.99372C24.9953 4.82962 25.0875 4.60706 25.0875 4.375C25.0875 4.14294 24.9953 3.92038 24.8312 3.75628C24.6671 3.59219 24.4445 3.5 24.2125 3.5H21.5875V0.875C21.5875 0.642936 21.4953 0.420376 21.3312 0.256282C21.1671 0.0921873 20.9445 0 20.7125 0C20.4804 0 20.2578 0.0921873 20.0937 0.256282C19.9297 0.420376 19.8375 0.642936 19.8375 0.875V3.5H17.2125C16.9804 3.5 16.7578 3.59219 16.5938 3.75628C16.4297 3.92038 16.3375 4.14294 16.3375 4.375C16.3375 4.60706 16.4297 4.82962 16.5938 4.99372C16.7578 5.15781 16.9804 5.25 17.2125 5.25Z" fill="#0A7DFA"/>
</svg>
