<svg width="26" height="25" viewBox="0 0 26 25" fill="none" xmlns="http://www.w3.org/2000/svg">
<path d="M21.1249 7.8099L19.5107 9.36198L16.2607 6.23698L17.8749 4.6849C18.3299 4.2474 18.9149 4.03906 19.4999 4.03906C20.0849 4.03906 20.6699 4.2474 21.1249 4.6849C22.0241 5.54948 22.0241 6.94531 21.1249 7.8099Z" fill="#033162"/>
<path d="M18.7515 10.1016L7.04059 21.3515C6.14142 22.2161 4.68975 22.2161 3.79059 21.3515C2.89142 20.487 2.89142 19.0911 3.79059 18.2265L15.5015 6.97656L18.7515 10.1016Z" fill="#033162"/>
<path d="M10.7794 3.64506L11.2235 2.19714C11.2669 2.06172 11.2235 1.91589 11.126 1.81172C11.0285 1.70756 10.8552 1.66589 10.7144 1.70756L9.20856 2.13464L7.70272 1.70756C7.56189 1.66589 7.41022 1.70756 7.30189 1.80131C7.19355 1.90547 7.16105 2.05131 7.20439 2.18672L7.63772 3.64506L7.19356 5.09297C7.15022 5.22838 7.19356 5.37422 7.29106 5.47839C7.39939 5.58256 7.55106 5.61381 7.69189 5.57214L9.20856 5.15547L10.7144 5.58256C10.7577 5.59297 10.7902 5.60339 10.8335 5.60339C10.9419 5.60339 11.0394 5.56172 11.126 5.48881C11.2344 5.38464 11.2669 5.23881 11.2235 5.10339L10.7794 3.64506Z" fill="#0A7DFA"/>
<path d="M6.44638 9.89506L6.89055 8.44713C6.93388 8.31171 6.89055 8.16589 6.79305 8.06172C6.68471 7.95756 6.53305 7.92631 6.39221 7.96797L4.87555 8.38464L3.3697 7.95756C3.22887 7.91589 3.07721 7.95756 2.96888 8.05131C2.86055 8.15547 2.82805 8.30131 2.87138 8.43672L3.30471 9.89506L2.86055 11.343C2.81721 11.4784 2.86055 11.6242 2.95805 11.7284C3.06638 11.8325 3.21804 11.8638 3.35887 11.8221L4.8647 11.395L6.37055 11.8221C6.40305 11.8325 6.44638 11.8325 6.4897 11.8325C6.59804 11.8325 6.69555 11.7909 6.78221 11.718C6.89055 11.6138 6.92305 11.468 6.87971 11.3325L6.44638 9.89506Z" fill="#0A7DFA"/>
</svg>
